# xmcd
#
# Track frame offsets:
#	150
#	41049
#	94508
#	146986
#	226718
#
# Disc length: 3731
#
# Revision: 1
# Processed by: cddbd v1.5.1PL0 Copyright (c) Steve Scherf et al.
# Submitted via: CDex 1.51
# Normalized: r0:TRMNUM
#
DISCID=3a0e9105
DTITLE=Krsna Prema - Memories
DYEAR=1900
DGENRE=New Age
TTITLE0=Bhajans
TTITLE1=Sri Damodarastaka
TTITLE2=Jaya Radha Madhava
TTITLE3=Gopinatha
TTITLE4=Govinda Jaya Jaya
EXTD=
EXTT0=
EXTT1=
EXTT2=
EXTT3=
EXTT4=
PLAYORDER=
